<mxfile host="app.diagrams.net" modified="2023-10-03T14:53:03.754Z" agent="Mozilla/5.0 (Windows NT 10.0; Win64; x64) AppleWebKit/537.36 (KHTML, like Gecko) Chrome/117.0.0.0 Safari/537.36 Edg/117.0.2045.47" etag="GDreF3euAqDEidsMMm8z" version="22.0.2" type="github">
  <diagram id="C5RBs43oDa-KdzZeNtuy" name="Page-1">
    <mxGraphModel dx="956" dy="541" grid="0" gridSize="10" guides="1" tooltips="1" connect="1" arrows="1" fold="1" page="1" pageScale="1" pageWidth="827" pageHeight="1169" background="#FCFCFC" math="0" shadow="1">
      <root>
        <mxCell id="WIyWlLk6GJQsqaUBKTNV-0" />
        <mxCell id="WIyWlLk6GJQsqaUBKTNV-1" parent="WIyWlLk6GJQsqaUBKTNV-0" />
        <mxCell id="OyC32OSA8BWLhOvtT4pc-3" value="" style="shape=internalStorage;whiteSpace=wrap;html=1;backgroundOutline=1;dx=30;dy=30;strokeColor=#0D0D0D;fontColor=#0D0D0D;fillColor=#FFFFFF;shadow=0;" vertex="1" parent="WIyWlLk6GJQsqaUBKTNV-1">
          <mxGeometry x="130" y="110" width="190" height="391" as="geometry" />
        </mxCell>
        <mxCell id="OyC32OSA8BWLhOvtT4pc-5" value="&lt;font style=&quot;background-color: rgb(252, 252, 252);&quot;&gt;&amp;nbsp; id_preco&lt;/font&gt;" style="text;html=1;strokeColor=none;fillColor=none;align=left;verticalAlign=middle;whiteSpace=wrap;rounded=0;fontSize=15;fontStyle=1;fontColor=#0D0D0D;shadow=0;" vertex="1" parent="WIyWlLk6GJQsqaUBKTNV-1">
          <mxGeometry x="160" y="110" width="160" height="30" as="geometry" />
        </mxCell>
        <mxCell id="OyC32OSA8BWLhOvtT4pc-8" value="&lt;font&gt;PK&lt;/font&gt;" style="text;html=1;strokeColor=#0D0D0D;fillColor=none;align=center;verticalAlign=middle;whiteSpace=wrap;rounded=0;fontColor=#0D0D0D;shadow=0;" vertex="1" parent="WIyWlLk6GJQsqaUBKTNV-1">
          <mxGeometry x="130" y="110" width="30" height="30" as="geometry" />
        </mxCell>
        <mxCell id="OyC32OSA8BWLhOvtT4pc-9" value="&lt;font style=&quot;font-size: 16px;&quot;&gt;&lt;b&gt;precos_medios&lt;/b&gt;&lt;/font&gt;" style="rounded=0;whiteSpace=wrap;html=1;fillColor=#E6E6E6;strokeColor=#0D0D0D;fontColor=#0D0D0D;shadow=0;" vertex="1" parent="WIyWlLk6GJQsqaUBKTNV-1">
          <mxGeometry x="130" y="80" width="190" height="30" as="geometry" />
        </mxCell>
        <mxCell id="OyC32OSA8BWLhOvtT4pc-10" value="&lt;font&gt;&amp;nbsp; data_inicial&lt;/font&gt;" style="text;html=1;strokeColor=none;fillColor=none;align=left;verticalAlign=middle;whiteSpace=wrap;rounded=0;fontSize=13;fontColor=#0D0D0D;shadow=0;" vertex="1" parent="WIyWlLk6GJQsqaUBKTNV-1">
          <mxGeometry x="160" y="260" width="160" height="30" as="geometry" />
        </mxCell>
        <mxCell id="OyC32OSA8BWLhOvtT4pc-11" value="&lt;font&gt;&amp;nbsp; data_final&lt;/font&gt;" style="text;html=1;strokeColor=none;fillColor=none;align=left;verticalAlign=middle;whiteSpace=wrap;rounded=0;fontSize=13;fontColor=#0D0D0D;shadow=0;" vertex="1" parent="WIyWlLk6GJQsqaUBKTNV-1">
          <mxGeometry x="160" y="290" width="160" height="30" as="geometry" />
        </mxCell>
        <mxCell id="OyC32OSA8BWLhOvtT4pc-12" value="&lt;font&gt;&amp;nbsp; num_postos&lt;/font&gt;" style="text;html=1;strokeColor=none;fillColor=none;align=left;verticalAlign=middle;whiteSpace=wrap;rounded=0;fontSize=13;fontColor=#0D0D0D;shadow=0;" vertex="1" parent="WIyWlLk6GJQsqaUBKTNV-1">
          <mxGeometry x="160" y="320" width="160" height="30" as="geometry" />
        </mxCell>
        <mxCell id="OyC32OSA8BWLhOvtT4pc-13" value="&lt;font style=&quot;font-size: 13px;&quot;&gt;&amp;nbsp; id_unidade&lt;/font&gt;" style="text;html=1;strokeColor=none;fillColor=none;align=left;verticalAlign=middle;whiteSpace=wrap;rounded=0;fontColor=#0D0D0D;shadow=0;" vertex="1" parent="WIyWlLk6GJQsqaUBKTNV-1">
          <mxGeometry x="160" y="140" width="160" height="30" as="geometry" />
        </mxCell>
        <mxCell id="OyC32OSA8BWLhOvtT4pc-14" value="&lt;div style=&quot;&quot;&gt;&lt;span style=&quot;font-size: 13px; background-color: initial;&quot;&gt;&lt;font&gt;&amp;nbsp; id_municipio&lt;/font&gt;&lt;/span&gt;&lt;/div&gt;" style="text;html=1;strokeColor=none;fillColor=none;align=left;verticalAlign=middle;whiteSpace=wrap;rounded=0;fontColor=#0D0D0D;shadow=0;" vertex="1" parent="WIyWlLk6GJQsqaUBKTNV-1">
          <mxGeometry x="160" y="170" width="160" height="30" as="geometry" />
        </mxCell>
        <mxCell id="OyC32OSA8BWLhOvtT4pc-16" value="&lt;div style=&quot;&quot;&gt;&lt;span style=&quot;font-size: 13px; background-color: initial;&quot;&gt;&lt;font&gt;&amp;nbsp; id_estado&lt;/font&gt;&lt;/span&gt;&lt;/div&gt;" style="text;html=1;strokeColor=none;fillColor=none;align=left;verticalAlign=middle;whiteSpace=wrap;rounded=0;fontColor=#0D0D0D;shadow=0;" vertex="1" parent="WIyWlLk6GJQsqaUBKTNV-1">
          <mxGeometry x="160" y="200" width="160" height="30" as="geometry" />
        </mxCell>
        <mxCell id="OyC32OSA8BWLhOvtT4pc-17" value="&lt;div style=&quot;&quot;&gt;&lt;span style=&quot;font-size: 13px; background-color: initial;&quot;&gt;&lt;font&gt;&amp;nbsp; id_combustivel&lt;/font&gt;&lt;/span&gt;&lt;/div&gt;" style="text;html=1;strokeColor=none;fillColor=none;align=left;verticalAlign=middle;whiteSpace=wrap;rounded=0;fontColor=#0D0D0D;shadow=0;" vertex="1" parent="WIyWlLk6GJQsqaUBKTNV-1">
          <mxGeometry x="160" y="230" width="160" height="30" as="geometry" />
        </mxCell>
        <mxCell id="OyC32OSA8BWLhOvtT4pc-21" value="&lt;font&gt;FK&lt;/font&gt;" style="text;html=1;strokeColor=none;fillColor=none;align=center;verticalAlign=middle;whiteSpace=wrap;rounded=0;fontColor=#0D0D0D;shadow=0;" vertex="1" parent="WIyWlLk6GJQsqaUBKTNV-1">
          <mxGeometry x="130" y="140" width="30" height="30" as="geometry" />
        </mxCell>
        <mxCell id="OyC32OSA8BWLhOvtT4pc-22" value="&lt;font&gt;FK&lt;/font&gt;" style="text;html=1;strokeColor=none;fillColor=none;align=center;verticalAlign=middle;whiteSpace=wrap;rounded=0;fontColor=#0D0D0D;shadow=0;" vertex="1" parent="WIyWlLk6GJQsqaUBKTNV-1">
          <mxGeometry x="130" y="170" width="30" height="30" as="geometry" />
        </mxCell>
        <mxCell id="OyC32OSA8BWLhOvtT4pc-23" value="&lt;font&gt;FK&lt;/font&gt;" style="text;html=1;strokeColor=none;fillColor=none;align=center;verticalAlign=middle;whiteSpace=wrap;rounded=0;fontColor=#0D0D0D;shadow=0;" vertex="1" parent="WIyWlLk6GJQsqaUBKTNV-1">
          <mxGeometry x="130" y="200" width="30" height="30" as="geometry" />
        </mxCell>
        <mxCell id="OyC32OSA8BWLhOvtT4pc-24" value="&lt;font&gt;FK&lt;/font&gt;" style="text;html=1;strokeColor=none;fillColor=none;align=center;verticalAlign=middle;whiteSpace=wrap;rounded=0;fontColor=#0D0D0D;shadow=0;" vertex="1" parent="WIyWlLk6GJQsqaUBKTNV-1">
          <mxGeometry x="130" y="230" width="30" height="30" as="geometry" />
        </mxCell>
        <mxCell id="OyC32OSA8BWLhOvtT4pc-25" value="&lt;font&gt;&amp;nbsp; preco_medio&lt;/font&gt;" style="text;html=1;strokeColor=none;fillColor=none;align=left;verticalAlign=middle;whiteSpace=wrap;rounded=0;fontSize=13;fontColor=#0D0D0D;shadow=0;" vertex="1" parent="WIyWlLk6GJQsqaUBKTNV-1">
          <mxGeometry x="160" y="350" width="160" height="30" as="geometry" />
        </mxCell>
        <mxCell id="OyC32OSA8BWLhOvtT4pc-26" value="&lt;font&gt;&amp;nbsp; preco_std&lt;/font&gt;" style="text;html=1;strokeColor=none;fillColor=none;align=left;verticalAlign=middle;whiteSpace=wrap;rounded=0;fontSize=13;fontColor=#0D0D0D;shadow=0;" vertex="1" parent="WIyWlLk6GJQsqaUBKTNV-1">
          <mxGeometry x="160" y="380" width="160" height="30" as="geometry" />
        </mxCell>
        <mxCell id="OyC32OSA8BWLhOvtT4pc-27" value="&lt;font&gt;&amp;nbsp; preco_min&lt;/font&gt;" style="text;html=1;strokeColor=none;fillColor=none;align=left;verticalAlign=middle;whiteSpace=wrap;rounded=0;fontSize=13;fontColor=#0D0D0D;shadow=0;" vertex="1" parent="WIyWlLk6GJQsqaUBKTNV-1">
          <mxGeometry x="160" y="410" width="160" height="30" as="geometry" />
        </mxCell>
        <mxCell id="OyC32OSA8BWLhOvtT4pc-28" value="&lt;font&gt;&amp;nbsp; preco_max&lt;/font&gt;" style="text;html=1;strokeColor=none;fillColor=none;align=left;verticalAlign=middle;whiteSpace=wrap;rounded=0;fontSize=13;fontColor=#0D0D0D;shadow=0;" vertex="1" parent="WIyWlLk6GJQsqaUBKTNV-1">
          <mxGeometry x="160" y="440" width="160" height="30" as="geometry" />
        </mxCell>
        <mxCell id="OyC32OSA8BWLhOvtT4pc-29" value="&lt;font&gt;&amp;nbsp; preco_var&lt;/font&gt;" style="text;html=1;strokeColor=none;fillColor=none;align=left;verticalAlign=middle;whiteSpace=wrap;rounded=0;fontSize=13;fontColor=#0D0D0D;shadow=0;" vertex="1" parent="WIyWlLk6GJQsqaUBKTNV-1">
          <mxGeometry x="160" y="470" width="160" height="30" as="geometry" />
        </mxCell>
        <mxCell id="OyC32OSA8BWLhOvtT4pc-33" value="" style="shape=internalStorage;whiteSpace=wrap;html=1;backgroundOutline=1;dx=30;dy=30;strokeColor=#0D0D0D;fontColor=#0D0D0D;fillColor=#FFFFFF;shadow=0;" vertex="1" parent="WIyWlLk6GJQsqaUBKTNV-1">
          <mxGeometry x="450" y="470" width="176" height="89" as="geometry" />
        </mxCell>
        <mxCell id="OyC32OSA8BWLhOvtT4pc-34" value="&amp;nbsp;id_combustivel" style="text;html=1;strokeColor=#0D0D0D;fillColor=none;align=left;verticalAlign=middle;whiteSpace=wrap;rounded=0;fontSize=15;fontStyle=1;fontColor=#0D0D0D;shadow=0;" vertex="1" parent="WIyWlLk6GJQsqaUBKTNV-1">
          <mxGeometry x="480" y="470" width="146" height="30" as="geometry" />
        </mxCell>
        <mxCell id="OyC32OSA8BWLhOvtT4pc-104" style="edgeStyle=orthogonalEdgeStyle;rounded=1;orthogonalLoop=1;jettySize=auto;html=1;exitX=0;exitY=0.5;exitDx=0;exitDy=0;entryX=1;entryY=0.5;entryDx=0;entryDy=0;strokeColor=#0D0D0D;strokeWidth=2;fontColor=#0D0D0D;shadow=0;" edge="1" parent="WIyWlLk6GJQsqaUBKTNV-1" source="OyC32OSA8BWLhOvtT4pc-35" target="OyC32OSA8BWLhOvtT4pc-17">
          <mxGeometry relative="1" as="geometry">
            <Array as="points">
              <mxPoint x="351" y="485" />
              <mxPoint x="351" y="245" />
            </Array>
          </mxGeometry>
        </mxCell>
        <mxCell id="OyC32OSA8BWLhOvtT4pc-35" value="PK" style="text;html=1;strokeColor=#0D0D0D;fillColor=none;align=center;verticalAlign=middle;whiteSpace=wrap;rounded=0;fontColor=#0D0D0D;shadow=0;" vertex="1" parent="WIyWlLk6GJQsqaUBKTNV-1">
          <mxGeometry x="450" y="470" width="30" height="30" as="geometry" />
        </mxCell>
        <mxCell id="OyC32OSA8BWLhOvtT4pc-36" value="&lt;b&gt;&lt;font style=&quot;font-size: 16px;&quot;&gt;combustiveis&lt;/font&gt;&lt;/b&gt;" style="rounded=0;whiteSpace=wrap;html=1;fillColor=#E6E6E6;strokeColor=#0D0D0D;fontColor=#0D0D0D;shadow=0;" vertex="1" parent="WIyWlLk6GJQsqaUBKTNV-1">
          <mxGeometry x="450" y="440" width="176" height="30" as="geometry" />
        </mxCell>
        <mxCell id="OyC32OSA8BWLhOvtT4pc-40" value="&lt;span style=&quot;font-size: 13px;&quot;&gt;&amp;nbsp; combustivel&lt;br&gt;&lt;/span&gt;" style="text;html=1;strokeColor=none;fillColor=none;align=left;verticalAlign=middle;whiteSpace=wrap;rounded=0;fontColor=#0D0D0D;shadow=0;" vertex="1" parent="WIyWlLk6GJQsqaUBKTNV-1">
          <mxGeometry x="481" y="530" width="145" height="29" as="geometry" />
        </mxCell>
        <mxCell id="OyC32OSA8BWLhOvtT4pc-59" value="" style="shape=internalStorage;whiteSpace=wrap;html=1;backgroundOutline=1;dx=30;dy=30;strokeColor=#0D0D0D;fontColor=#0D0D0D;fillColor=#FFFFFF;shadow=0;" vertex="1" parent="WIyWlLk6GJQsqaUBKTNV-1">
          <mxGeometry x="450" y="360" width="176" height="60" as="geometry" />
        </mxCell>
        <mxCell id="OyC32OSA8BWLhOvtT4pc-88" style="edgeStyle=orthogonalEdgeStyle;rounded=1;orthogonalLoop=1;jettySize=auto;html=1;exitX=1;exitY=0.5;exitDx=0;exitDy=0;entryX=1;entryY=0.5;entryDx=0;entryDy=0;strokeColor=#0D0D0D;strokeWidth=2;fontColor=#0D0D0D;shadow=0;" edge="1" parent="WIyWlLk6GJQsqaUBKTNV-1" source="OyC32OSA8BWLhOvtT4pc-60" target="OyC32OSA8BWLhOvtT4pc-69">
          <mxGeometry relative="1" as="geometry">
            <mxPoint x="730" y="240" as="targetPoint" />
            <Array as="points">
              <mxPoint x="671" y="375" />
              <mxPoint x="671" y="245" />
            </Array>
          </mxGeometry>
        </mxCell>
        <mxCell id="OyC32OSA8BWLhOvtT4pc-60" value="&amp;nbsp; id_estado" style="text;html=1;strokeColor=#0D0D0D;fillColor=none;align=left;verticalAlign=middle;whiteSpace=wrap;rounded=0;fontSize=15;fontStyle=1;fontColor=#0D0D0D;shadow=0;" vertex="1" parent="WIyWlLk6GJQsqaUBKTNV-1">
          <mxGeometry x="480" y="360" width="146" height="30" as="geometry" />
        </mxCell>
        <mxCell id="OyC32OSA8BWLhOvtT4pc-102" style="edgeStyle=orthogonalEdgeStyle;rounded=1;orthogonalLoop=1;jettySize=auto;html=1;entryX=1;entryY=0.5;entryDx=0;entryDy=0;strokeColor=#0D0D0D;strokeWidth=2;fontColor=#0D0D0D;shadow=0;" edge="1" parent="WIyWlLk6GJQsqaUBKTNV-1" source="OyC32OSA8BWLhOvtT4pc-61" target="OyC32OSA8BWLhOvtT4pc-16">
          <mxGeometry relative="1" as="geometry" />
        </mxCell>
        <mxCell id="OyC32OSA8BWLhOvtT4pc-61" value="PK" style="text;html=1;strokeColor=#0D0D0D;fillColor=none;align=center;verticalAlign=middle;whiteSpace=wrap;rounded=0;fontColor=#0D0D0D;shadow=0;" vertex="1" parent="WIyWlLk6GJQsqaUBKTNV-1">
          <mxGeometry x="450" y="360" width="30" height="30" as="geometry" />
        </mxCell>
        <mxCell id="OyC32OSA8BWLhOvtT4pc-62" value="&lt;span style=&quot;font-size: 16px;&quot;&gt;&lt;b&gt;estados&lt;/b&gt;&lt;/span&gt;" style="rounded=0;whiteSpace=wrap;html=1;fillColor=#E6E6E6;strokeColor=#0D0D0D;fontColor=#0D0D0D;shadow=0;" vertex="1" parent="WIyWlLk6GJQsqaUBKTNV-1">
          <mxGeometry x="450" y="330" width="176" height="30" as="geometry" />
        </mxCell>
        <mxCell id="OyC32OSA8BWLhOvtT4pc-63" value="&lt;span style=&quot;font-size: 13px;&quot;&gt;&amp;nbsp; &amp;nbsp;estado&lt;br&gt;&lt;/span&gt;" style="text;html=1;strokeColor=none;fillColor=none;align=left;verticalAlign=middle;whiteSpace=wrap;rounded=0;fontColor=#0D0D0D;shadow=0;" vertex="1" parent="WIyWlLk6GJQsqaUBKTNV-1">
          <mxGeometry x="480" y="390" width="146" height="30" as="geometry" />
        </mxCell>
        <mxCell id="OyC32OSA8BWLhOvtT4pc-65" value="" style="shape=internalStorage;whiteSpace=wrap;html=1;backgroundOutline=1;dx=30;dy=30;strokeColor=#0D0D0D;fontColor=#0D0D0D;fillColor=#FFFFFF;shadow=0;" vertex="1" parent="WIyWlLk6GJQsqaUBKTNV-1">
          <mxGeometry x="450" y="200" width="176" height="90" as="geometry" />
        </mxCell>
        <mxCell id="OyC32OSA8BWLhOvtT4pc-66" value="&amp;nbsp; id_municipio" style="text;html=1;strokeColor=#0D0D0D;fillColor=none;align=left;verticalAlign=middle;whiteSpace=wrap;rounded=0;fontSize=15;fontStyle=1;fontColor=#0D0D0D;shadow=0;" vertex="1" parent="WIyWlLk6GJQsqaUBKTNV-1">
          <mxGeometry x="480" y="200" width="146" height="30" as="geometry" />
        </mxCell>
        <mxCell id="OyC32OSA8BWLhOvtT4pc-76" style="edgeStyle=orthogonalEdgeStyle;rounded=1;orthogonalLoop=1;jettySize=auto;html=1;exitX=0;exitY=0.5;exitDx=0;exitDy=0;strokeColor=#0D0D0D;strokeWidth=2;fontColor=#0D0D0D;shadow=0;" edge="1" parent="WIyWlLk6GJQsqaUBKTNV-1" source="OyC32OSA8BWLhOvtT4pc-67" target="OyC32OSA8BWLhOvtT4pc-14">
          <mxGeometry relative="1" as="geometry">
            <mxPoint x="350" y="130" as="targetPoint" />
            <Array as="points">
              <mxPoint x="390" y="215" />
              <mxPoint x="390" y="185" />
            </Array>
          </mxGeometry>
        </mxCell>
        <mxCell id="OyC32OSA8BWLhOvtT4pc-67" value="PK" style="text;html=1;strokeColor=#0D0D0D;fillColor=none;align=center;verticalAlign=middle;whiteSpace=wrap;rounded=0;fontColor=#0D0D0D;shadow=0;" vertex="1" parent="WIyWlLk6GJQsqaUBKTNV-1">
          <mxGeometry x="450" y="200" width="30" height="30" as="geometry" />
        </mxCell>
        <mxCell id="OyC32OSA8BWLhOvtT4pc-68" value="&lt;span style=&quot;font-size: 16px;&quot;&gt;&lt;b&gt;municipios&lt;/b&gt;&lt;/span&gt;" style="rounded=0;whiteSpace=wrap;html=1;fillColor=#E6E6E6;strokeColor=#0D0D0D;fontColor=#0D0D0D;shadow=0;" vertex="1" parent="WIyWlLk6GJQsqaUBKTNV-1">
          <mxGeometry x="450" y="170" width="176" height="30" as="geometry" />
        </mxCell>
        <mxCell id="OyC32OSA8BWLhOvtT4pc-69" value="&lt;span style=&quot;font-size: 13px;&quot;&gt;&amp;nbsp; &amp;nbsp;id_estado&lt;br&gt;&lt;/span&gt;" style="text;html=1;strokeColor=none;fillColor=none;align=left;verticalAlign=middle;whiteSpace=wrap;rounded=0;fontColor=#0D0D0D;shadow=0;" vertex="1" parent="WIyWlLk6GJQsqaUBKTNV-1">
          <mxGeometry x="480" y="230" width="146" height="29" as="geometry" />
        </mxCell>
        <mxCell id="OyC32OSA8BWLhOvtT4pc-73" value="&lt;span style=&quot;font-size: 13px;&quot;&gt;&amp;nbsp; &amp;nbsp;municipio&lt;br&gt;&lt;/span&gt;" style="text;html=1;strokeColor=none;fillColor=none;align=left;verticalAlign=middle;whiteSpace=wrap;rounded=0;fontColor=#0D0D0D;shadow=0;" vertex="1" parent="WIyWlLk6GJQsqaUBKTNV-1">
          <mxGeometry x="480" y="259" width="146" height="31" as="geometry" />
        </mxCell>
        <mxCell id="OyC32OSA8BWLhOvtT4pc-75" value="FK" style="text;html=1;strokeColor=none;fillColor=none;align=center;verticalAlign=middle;whiteSpace=wrap;rounded=0;fontColor=#0D0D0D;shadow=0;" vertex="1" parent="WIyWlLk6GJQsqaUBKTNV-1">
          <mxGeometry x="450" y="230" width="30" height="30" as="geometry" />
        </mxCell>
        <mxCell id="OyC32OSA8BWLhOvtT4pc-81" value="" style="shape=internalStorage;whiteSpace=wrap;html=1;backgroundOutline=1;dx=30;dy=30;strokeColor=#0D0D0D;fillColor=#FFFFFF;fontColor=#0D0D0D;shadow=0;" vertex="1" parent="WIyWlLk6GJQsqaUBKTNV-1">
          <mxGeometry x="450" y="60" width="176" height="60" as="geometry" />
        </mxCell>
        <mxCell id="OyC32OSA8BWLhOvtT4pc-99" style="edgeStyle=orthogonalEdgeStyle;rounded=1;orthogonalLoop=1;jettySize=auto;html=1;exitX=1;exitY=0.5;exitDx=0;exitDy=0;strokeColor=#0D0D0D;entryX=1;entryY=0.5;entryDx=0;entryDy=0;strokeWidth=2;fontColor=#0D0D0D;shadow=0;" edge="1" parent="WIyWlLk6GJQsqaUBKTNV-1" source="OyC32OSA8BWLhOvtT4pc-82" target="OyC32OSA8BWLhOvtT4pc-92">
          <mxGeometry relative="1" as="geometry">
            <mxPoint x="695.7241379310344" y="513.72412109375" as="targetPoint" />
            <Array as="points">
              <mxPoint x="713" y="75" />
              <mxPoint x="713" y="515" />
            </Array>
          </mxGeometry>
        </mxCell>
        <mxCell id="OyC32OSA8BWLhOvtT4pc-82" value="&lt;font&gt;&amp;nbsp; id_unidade&lt;/font&gt;" style="text;html=1;strokeColor=#0D0D0D;fillColor=none;align=left;verticalAlign=middle;whiteSpace=wrap;rounded=0;fontSize=15;fontStyle=1;fontColor=#0D0D0D;shadow=0;" vertex="1" parent="WIyWlLk6GJQsqaUBKTNV-1">
          <mxGeometry x="480" y="60" width="146" height="30" as="geometry" />
        </mxCell>
        <mxCell id="OyC32OSA8BWLhOvtT4pc-86" style="edgeStyle=orthogonalEdgeStyle;rounded=1;orthogonalLoop=1;jettySize=auto;html=1;exitX=0;exitY=0.25;exitDx=0;exitDy=0;entryX=1;entryY=0.75;entryDx=0;entryDy=0;strokeColor=#0D0D0D;strokeWidth=2;fontColor=#0D0D0D;shadow=0;" edge="1" parent="WIyWlLk6GJQsqaUBKTNV-1" source="OyC32OSA8BWLhOvtT4pc-83" target="OyC32OSA8BWLhOvtT4pc-13">
          <mxGeometry relative="1" as="geometry" />
        </mxCell>
        <mxCell id="OyC32OSA8BWLhOvtT4pc-83" value="&lt;font&gt;PK&lt;/font&gt;" style="text;html=1;strokeColor=#0D0D0D;fillColor=none;align=center;verticalAlign=middle;whiteSpace=wrap;rounded=0;fontColor=#0D0D0D;shadow=0;" vertex="1" parent="WIyWlLk6GJQsqaUBKTNV-1">
          <mxGeometry x="450" y="60" width="30" height="30" as="geometry" />
        </mxCell>
        <mxCell id="OyC32OSA8BWLhOvtT4pc-84" value="&lt;span style=&quot;font-size: 16px;&quot;&gt;&lt;b&gt;&lt;font&gt;unidade_medida&lt;/font&gt;&lt;/b&gt;&lt;/span&gt;" style="rounded=0;whiteSpace=wrap;html=1;fillColor=#E6E6E6;strokeColor=#0D0D0D;fontColor=#0D0D0D;shadow=0;" vertex="1" parent="WIyWlLk6GJQsqaUBKTNV-1">
          <mxGeometry x="450" y="30" width="176" height="30" as="geometry" />
        </mxCell>
        <mxCell id="OyC32OSA8BWLhOvtT4pc-85" value="&lt;span style=&quot;font-size: 13px;&quot;&gt;&lt;font&gt;&amp;nbsp; &amp;nbsp;unidade&lt;/font&gt;&lt;br&gt;&lt;/span&gt;" style="text;html=1;strokeColor=none;fillColor=none;align=left;verticalAlign=middle;whiteSpace=wrap;rounded=0;fontColor=#0D0D0D;shadow=0;" vertex="1" parent="WIyWlLk6GJQsqaUBKTNV-1">
          <mxGeometry x="480" y="90" width="146" height="30" as="geometry" />
        </mxCell>
        <mxCell id="OyC32OSA8BWLhOvtT4pc-92" value="&lt;font style=&quot;font-size: 13px;&quot;&gt;&amp;nbsp; id_unidade&lt;/font&gt;&lt;span style=&quot;font-size: 13px;&quot;&gt;&lt;br&gt;&lt;/span&gt;" style="text;html=1;strokeColor=none;fillColor=none;align=left;verticalAlign=middle;whiteSpace=wrap;rounded=0;fontColor=#0D0D0D;shadow=0;" vertex="1" parent="WIyWlLk6GJQsqaUBKTNV-1">
          <mxGeometry x="480" y="500" width="146" height="30" as="geometry" />
        </mxCell>
        <mxCell id="OyC32OSA8BWLhOvtT4pc-94" value="FK" style="text;html=1;strokeColor=none;fillColor=none;align=center;verticalAlign=middle;whiteSpace=wrap;rounded=0;fontColor=#0D0D0D;shadow=0;" vertex="1" parent="WIyWlLk6GJQsqaUBKTNV-1">
          <mxGeometry x="450" y="500" width="30" height="30" as="geometry" />
        </mxCell>
      </root>
    </mxGraphModel>
  </diagram>
</mxfile>
